<svg xmlns="http://www.w3.org/2000/svg" viewBox="0 0 800 600" width="800" height="600">
  <rect width="800" height="600" fill="#fdf6ec"/>
  <ellipse cx="720" cy="100" r="35" fill="#ffb3b3"/>
  <g fill="#ffffff" opacity="0.9">
    <ellipse cx="150" cy="90" rx="50" ry="18"/>
    <ellipse cx="195" cy="80" rx="32" ry="14"/>
    <ellipse cx="400" cy="70" rx="42" ry="15"/>
    <ellipse cx="440" cy="62" rx="26" ry="11"/>
  </g>
  <rect y="460" width="800" height="140" fill="#c2e0c7"/>
  <g stroke="#5a5a5a" stroke-width="4" stroke-linecap="round">
    <line x1="220" y1="430" x2="220" y2="350"/>
    <line x1="220" y1="430" x2="290" y2="430"/>
    <line x1="220" y1="430" x2="220" y2="510"/>
    <line x1="220" y1="430" x2="150" y2="430"/>
    <line x1="220" y1="430" x2="310" y2="350"/>
    <line x1="220" y1="430" x2="310" y2="510"/>
    <line x1="560" y1="430" x2="560" y2="350"/>
    <line x1="560" y1="430" x2="630" y2="430"/>
    <line x1="560" y1="430" x2="560" y2="510"/>
    <line x1="560" y1="430" x2="690" y2="430"/>
    <line x1="0" y1="470" x2="800" y2="470"/>
    <line x1="0" y1="490" x2="800" y2="490"/>
  </g>
  <circle cx="220" cy="430" r="80" fill="none" stroke="#5a5a5a" stroke-width="4"/>
  <circle cx="560" cy="430" r="80" fill="none" stroke="#5a5a5a" stroke-width="4"/>
  <circle cx="220" cy="430" r="66" fill="none" stroke="#777777" stroke-width="3"/>
  <circle cx="560" cy="430" r="66" fill="none" stroke="#777777" stroke-width="3"/>
  <circle cx="220" cy="430" r="12" fill="#555555"/>
  <circle cx="560" cy="430" r="12" fill="#555555"/>
  <path d="M220 430 L310 300 L550 250 L560 430 Z" fill="none" stroke="#5a5a5a" stroke-width="6"/>
  <ellipse cx="320" cy="280" rx="22" ry="10" fill="#e5e5e5" transform="rotate(-2 320 280)"/>
  <path d="M550 250 Q570 220 595 230 Q610 240 615 245" fill="none" stroke="#5a5a5a" stroke-width="6" stroke-linecap="round"/>
  <circle cx="595" cy="230" r="8" fill="#5a5a5a"/>
  <line x1="595" y1="222" x2="605" y2="222"/>
  <line x1="615" y1="238" x2="625" y2="238"/>
  <g>
    <ellipse cx="330" cy="260" rx="95" ry="55" fill="#f5f5f5" stroke="#5a5a5a" stroke-width="3" transform="rotate(-5 330 260)"/>
    <path d="M380 220 Q430 190 450 130" fill="none" stroke="#5a5a5a" stroke-width="6" stroke-linecap="round"/>
    <circle cx="480" cy="110" r="28" fill="#f5f5f5" stroke="#5a5a5a" stroke-width="3"/>
    <polygon points="510 95,620 110,515 115" fill="#ffb300" stroke="#5a5a5a" stroke-width="2"/>
    <path d="M515 112 Q560 140 620 102 Q560 125 515 112 Z" fill="#ff8f00" stroke="#5a5a5a" stroke-width="2"/>
    <circle cx="482" cy="98" r="4" fill="#222222"/>
    <path d="M320 250 Q350 230 360 220 Z" fill="#e0e0e0" stroke="#5a5a5a" stroke-width="2"/>
  </g>
  <g fill="#ffb3b3">
    <circle cx="700" cy="250" r="12"/><circle cx="720" cy="230" r="12"/><circle cx="740" cy="250" r="12"/>
    <circle cx="710" cy="270" r="12"/><circle cx="730" cy="270" r="12"/>
  </g>
  <g fill="#ffd66e">
    <ellipse cx="120" cy="300" rx="12" ry="6"/><circle cx="140" cy="300" r="10"/>
    <ellipse cx="700" cy="300" rx="12" ry="6"/><circle cx="720" cy="300" r="10"/>
  </g>
</svg>